<svg width="668" height="668" viewBox="0 0 668 668" fill="none" xmlns="http://www.w3.org/2000/svg">
<path d="M334 668C518.463 668 668 518.463 668 334C668 149.537 518.463 0 334 0C149.537 0 0 149.537 0 334C0 518.463 149.537 668 334 668Z" fill="#1A5B5B"/>
<path d="M593.41 442.375C589.782 440.624 585.606 440.383 581.8 441.706C577.994 443.029 574.871 445.808 573.116 449.431C565.471 465.217 556.284 480.21 545.687 494.193C543.195 467.282 535.81 403.91 517.089 339.627C502.652 290.085 484.47 250.375 462.975 221.606C434.453 183.399 400.049 164.037 360.721 164.037C318.834 164.037 282.659 187.063 253.194 232.485C231.084 266.581 212.613 313.664 198.306 372.508C189.242 409.774 183.004 446.783 178.741 478.648C176.923 487.408 175.345 496.681 174.008 506.468C172.162 519.981 171.014 532.726 170.3 543.644C161.603 536.855 153.329 529.543 145.523 521.748C120.079 496.33 100.067 466.018 86.6992 432.65C73.3316 399.282 66.8868 363.551 67.755 327.623C68.6231 291.694 76.7863 256.315 91.75 223.63C106.714 190.944 128.166 161.631 154.809 137.468C181.451 113.304 212.729 94.7922 246.746 83.0534C280.764 71.3145 316.815 66.5931 352.714 69.1751C388.612 71.7571 423.613 81.5888 455.595 98.0746C487.577 114.56 515.874 137.357 538.773 165.084C541.348 168.159 545.035 170.091 549.032 170.46C553.028 170.829 557.008 169.605 560.104 167.054C563.199 164.503 565.158 160.833 565.553 156.845C565.948 152.857 564.748 148.875 562.213 145.768C524.013 99.4765 472.63 65.8656 414.87 49.3879C357.111 32.9103 295.701 34.3434 238.775 53.4976C181.85 72.6518 132.095 108.623 96.1027 156.646C60.1103 204.669 39.5785 262.478 37.2272 322.414C34.876 382.35 50.8162 441.585 82.9363 492.273C115.056 542.96 161.841 582.707 217.091 606.249C272.342 629.791 333.451 636.016 392.325 624.1C451.198 612.185 505.057 582.69 546.766 539.524C568.632 516.919 586.757 490.985 600.461 462.692C601.339 460.897 601.852 458.946 601.972 456.952C602.093 454.957 601.817 452.959 601.162 451.071C600.507 449.184 599.485 447.444 598.155 445.951C596.825 444.459 595.212 443.244 593.41 442.375ZM278.792 248.85C290.265 231.188 302.787 217.653 316.022 208.602C329.987 199.035 344.614 194.384 360.721 194.384C390.293 194.384 415.739 209.171 438.51 239.579C452.809 258.683 465.612 283.583 476.735 313.93C466.66 306.561 455.623 302.876 443.623 302.876C418.413 302.876 397.275 321.001 380.833 356.742C369.284 381.832 359.597 416.42 352.045 459.536C350.692 467.26 349.454 474.976 348.329 482.593C330.018 410.207 301.617 373.532 263.794 373.532C250.37 373.445 237.274 377.666 226.434 385.572C226.928 383.486 227.422 381.392 227.954 379.306C241.44 323.899 258.551 280.009 278.792 248.85ZM200.837 564.197C201.725 549.835 203.959 520.193 208.799 483.685C214.665 455.948 223.95 429.781 238.34 415.207C245.87 407.62 254.197 403.879 263.794 403.879C275.548 403.879 286.686 412.938 296.906 430.813C306.646 447.86 315.057 472.062 321.896 502.743C330.481 541.3 334.311 580.364 335.8 599.498C335.04 599.498 334.318 599.498 333.574 599.498C286.986 599.613 241.195 587.435 200.837 564.197ZM476.728 557.793C443.749 578.875 406.493 592.384 367.651 597.343C368.753 575.653 372.339 519.723 382.026 464.498C389.138 424.022 398.035 391.998 408.49 369.321C416.111 352.858 428.344 333.223 443.623 333.223C455.377 333.223 466.516 342.282 476.728 360.157C486.476 377.212 494.879 401.414 501.71 432.087C510.113 469.854 513.966 508.107 515.516 527.681C503.541 538.888 490.556 548.968 476.728 557.793Z" fill="white"/>
<path d="M329.837 277.667H203.98C199.959 277.667 196.102 276.069 193.258 273.224C190.415 270.38 188.817 266.522 188.817 262.5C188.817 258.478 190.415 254.62 193.258 251.776C196.102 248.931 199.959 247.333 203.98 247.333C208.002 247.333 211.859 245.735 214.703 242.891C217.546 240.047 219.144 236.189 219.144 232.167C219.144 228.144 217.546 224.287 214.703 221.442C211.859 218.598 208.002 217 203.98 217H128.163C124.142 217 120.285 218.598 117.441 221.442C114.598 224.287 113 228.144 113 232.167C113 236.189 114.598 240.047 117.441 242.891C120.285 245.735 124.142 247.333 128.163 247.333H127.853H147.876C151.897 247.292 155.771 248.85 158.643 251.666C161.516 254.481 163.153 258.322 163.195 262.345C163.236 266.367 161.678 270.241 158.863 273.115C156.049 275.988 152.208 277.625 148.187 277.667H150.15C146.129 277.667 142.272 279.265 139.428 282.109C136.584 284.953 134.987 288.811 134.987 292.833C134.987 296.856 136.584 300.713 139.428 303.558C142.272 306.402 146.129 308 150.15 308H329.837C333.858 308 337.715 306.402 340.559 303.558C343.402 300.713 345 296.856 345 292.833C345 288.811 343.402 284.953 340.559 282.109C337.715 279.265 333.858 277.667 329.837 277.667Z" fill="white"/>
</svg>
