<svg width="352" height="639" viewBox="0 0 352 639" fill="none" xmlns="http://www.w3.org/2000/svg">
<g filter="url(#filter0_dd_320_3331)">
<path fill-rule="evenodd" clip-rule="evenodd" d="M21 163C21.0736 163 21.1451 163.023 21.2034 163.065C21.2617 163.107 21.3035 163.166 21.3223 163.233L21.7153 164.625L22.8333 165.229C22.884 165.257 22.9261 165.296 22.9553 165.344C22.9846 165.391 23 165.445 23 165.5C23 165.555 22.9846 165.609 22.9553 165.656C22.9261 165.704 22.884 165.743 22.8333 165.771L21.7153 166.375L21.322 167.768C21.3031 167.834 21.2613 167.893 21.203 167.935C21.1448 167.977 21.0733 168 20.9998 168C20.9263 168 20.8549 167.977 20.7966 167.935C20.7384 167.893 20.6965 167.834 20.6777 167.768L20.2847 166.375L19.1667 165.771C19.116 165.743 19.0739 165.704 19.0447 165.656C19.0154 165.609 19 165.555 19 165.5C19 165.445 19.0154 165.391 19.0447 165.344C19.0739 165.296 19.116 165.257 19.1667 165.229L20.2847 164.625L20.678 163.233C20.6968 163.166 20.7386 163.107 20.7968 163.065C20.8551 163.023 20.9265 163 21 163Z" fill="white"/>
<path fill-rule="evenodd" clip-rule="evenodd" d="M119 125C119.074 125 119.145 125.023 119.203 125.065C119.262 125.107 119.304 125.166 119.322 125.233L119.715 126.625L120.833 127.229C120.884 127.257 120.926 127.296 120.955 127.344C120.985 127.391 121 127.445 121 127.5C121 127.555 120.985 127.609 120.955 127.656C120.926 127.704 120.884 127.743 120.833 127.771L119.715 128.375L119.322 129.768C119.303 129.834 119.261 129.893 119.203 129.935C119.145 129.977 119.073 130 119 130C118.926 130 118.855 129.977 118.797 129.935C118.738 129.893 118.697 129.834 118.678 129.768L118.285 128.375L117.167 127.771C117.116 127.743 117.074 127.704 117.045 127.656C117.015 127.609 117 127.555 117 127.5C117 127.445 117.015 127.391 117.045 127.344C117.074 127.296 117.116 127.257 117.167 127.229L118.285 126.625L118.678 125.233C118.697 125.166 118.739 125.107 118.797 125.065C118.855 125.023 118.926 125 119 125Z" fill="white"/>
<path fill-rule="evenodd" clip-rule="evenodd" d="M80 110C80.0736 110 80.1451 110.023 80.2034 110.065C80.2617 110.107 80.3035 110.166 80.3223 110.233L80.7153 111.625L81.8333 112.229C81.884 112.257 81.9261 112.296 81.9553 112.344C81.9846 112.391 82 112.445 82 112.5C82 112.555 81.9846 112.609 81.9553 112.656C81.9261 112.704 81.884 112.743 81.8333 112.771L80.7153 113.375L80.322 114.768C80.3031 114.834 80.2613 114.893 80.203 114.935C80.1448 114.977 80.0733 115 79.9998 115C79.9263 115 79.8549 114.977 79.7966 114.935C79.7384 114.893 79.6965 114.834 79.6777 114.768L79.2847 113.375L78.1667 112.771C78.116 112.743 78.0739 112.704 78.0447 112.656C78.0154 112.609 78 112.555 78 112.5C78 112.445 78.0154 112.391 78.0447 112.344C78.0739 112.296 78.116 112.257 78.1667 112.229L79.2847 111.625L79.678 110.233C79.6968 110.166 79.7386 110.107 79.7968 110.065C79.8551 110.023 79.9265 110 80 110Z" fill="white"/>
<path fill-rule="evenodd" clip-rule="evenodd" d="M326 196C326.074 196 326.145 196.023 326.203 196.065C326.262 196.107 326.304 196.166 326.322 196.233L326.715 197.625L327.833 198.229C327.884 198.257 327.926 198.296 327.955 198.344C327.985 198.391 328 198.445 328 198.5C328 198.555 327.985 198.609 327.955 198.656C327.926 198.704 327.884 198.743 327.833 198.771L326.715 199.375L326.322 200.768C326.303 200.834 326.261 200.893 326.203 200.935C326.145 200.977 326.073 201 326 201C325.926 201 325.855 200.977 325.797 200.935C325.738 200.893 325.697 200.834 325.678 200.768L325.285 199.375L324.167 198.771C324.116 198.743 324.074 198.704 324.045 198.656C324.015 198.609 324 198.555 324 198.5C324 198.445 324.015 198.391 324.045 198.344C324.074 198.296 324.116 198.257 324.167 198.229L325.285 197.625L325.678 196.233C325.697 196.166 325.739 196.107 325.797 196.065C325.855 196.023 325.926 196 326 196Z" fill="white"/>
<path fill-rule="evenodd" clip-rule="evenodd" d="M183 342C183.074 342 183.145 342.023 183.203 342.065C183.262 342.107 183.304 342.166 183.322 342.233L183.715 343.625L184.833 344.229C184.884 344.257 184.926 344.296 184.955 344.344C184.985 344.391 185 344.445 185 344.5C185 344.555 184.985 344.609 184.955 344.656C184.926 344.704 184.884 344.743 184.833 344.771L183.715 345.375L183.322 346.768C183.303 346.834 183.261 346.893 183.203 346.935C183.145 346.977 183.073 347 183 347C182.926 347 182.855 346.977 182.797 346.935C182.738 346.893 182.697 346.834 182.678 346.768L182.285 345.375L181.167 344.771C181.116 344.743 181.074 344.704 181.045 344.656C181.015 344.609 181 344.555 181 344.5C181 344.445 181.015 344.391 181.045 344.344C181.074 344.296 181.116 344.257 181.167 344.229L182.285 343.625L182.678 342.233C182.697 342.166 182.739 342.107 182.797 342.065C182.855 342.023 182.926 342 183 342Z" fill="white"/>
<path fill-rule="evenodd" clip-rule="evenodd" d="M333 118C333.074 118 333.145 118.023 333.203 118.065C333.262 118.107 333.304 118.166 333.322 118.233L333.715 119.625L334.833 120.229C334.884 120.257 334.926 120.296 334.955 120.344C334.985 120.391 335 120.445 335 120.5C335 120.555 334.985 120.609 334.955 120.656C334.926 120.704 334.884 120.743 334.833 120.771L333.715 121.375L333.322 122.768C333.303 122.834 333.261 122.893 333.203 122.935C333.145 122.977 333.073 123 333 123C332.926 123 332.855 122.977 332.797 122.935C332.738 122.893 332.697 122.834 332.678 122.768L332.285 121.375L331.167 120.771C331.116 120.743 331.074 120.704 331.045 120.656C331.015 120.609 331 120.555 331 120.5C331 120.445 331.015 120.391 331.045 120.344C331.074 120.296 331.116 120.257 331.167 120.229L332.285 119.625L332.678 118.233C332.697 118.166 332.739 118.107 332.797 118.065C332.855 118.023 332.926 118 333 118Z" fill="white"/>
<path fill-rule="evenodd" clip-rule="evenodd" d="M107 2C107.074 1.99998 107.145 2.02277 107.203 2.06483C107.262 2.10688 107.304 2.16584 107.322 2.23251L107.715 3.62507L108.833 4.22947C108.884 4.2569 108.926 4.29635 108.955 4.34385C108.985 4.39136 109 4.44525 109 4.5001C109 4.55496 108.985 4.60885 108.955 4.65635C108.926 4.70386 108.884 4.74331 108.833 4.77074L107.715 5.37545L107.322 6.7677C107.303 6.8343 107.261 6.89319 107.203 6.93521C107.145 6.97722 107.073 7 107 7C106.926 7 106.855 6.97722 106.797 6.93521C106.738 6.89319 106.697 6.8343 106.678 6.7677L106.285 5.37514L105.167 4.77074C105.116 4.74331 105.074 4.70386 105.045 4.65635C105.015 4.60885 105 4.55496 105 4.5001C105 4.44525 105.015 4.39136 105.045 4.34385C105.074 4.29635 105.116 4.2569 105.167 4.22947L106.285 3.62476L106.678 2.23251C106.697 2.16589 106.739 2.10697 106.797 2.06492C106.855 2.02287 106.926 2.00005 107 2Z" fill="white"/>
<path fill-rule="evenodd" clip-rule="evenodd" d="M49.5 143C49.5552 143 49.6088 143.018 49.6525 143.052C49.6963 143.086 49.7276 143.133 49.7418 143.186L50.0365 144.3L50.875 144.784C50.913 144.806 50.9446 144.837 50.9665 144.875C50.9884 144.913 51 144.956 51 145C51 145.044 50.9884 145.087 50.9665 145.125C50.9446 145.163 50.913 145.195 50.875 145.217L50.0365 145.7L49.7415 146.814C49.7274 146.867 49.696 146.915 49.6523 146.948C49.6086 146.982 49.555 147 49.4999 147C49.4447 147 49.3912 146.982 49.3475 146.948C49.3038 146.915 49.2724 146.867 49.2582 146.814L48.9635 145.7L48.125 145.217C48.087 145.195 48.0554 145.163 48.0335 145.125C48.0116 145.087 48 145.044 48 145C48 144.956 48.0116 144.913 48.0335 144.875C48.0554 144.837 48.087 144.806 48.125 144.784L48.9635 144.3L49.2585 143.186C49.2726 143.133 49.3039 143.086 49.3476 143.052C49.3913 143.018 49.4449 143 49.5 143Z" fill="white"/>
<path fill-rule="evenodd" clip-rule="evenodd" d="M306.5 151C306.555 151 306.609 151.018 306.653 151.052C306.696 151.086 306.728 151.133 306.742 151.186L307.037 152.3L307.875 152.784C307.913 152.806 307.945 152.837 307.967 152.875C307.988 152.913 308 152.956 308 153C308 153.044 307.988 153.087 307.967 153.125C307.945 153.163 307.913 153.195 307.875 153.217L307.037 153.7L306.742 154.814C306.727 154.867 306.696 154.915 306.652 154.948C306.609 154.982 306.555 155 306.5 155C306.445 155 306.391 154.982 306.347 154.948C306.304 154.915 306.272 154.867 306.258 154.814L305.963 153.7L305.125 153.217C305.087 153.195 305.055 153.163 305.033 153.125C305.012 153.087 305 153.044 305 153C305 152.956 305.012 152.913 305.033 152.875C305.055 152.837 305.087 152.806 305.125 152.784L305.963 152.3L306.258 151.186C306.273 151.133 306.304 151.086 306.348 151.052C306.391 151.018 306.445 151 306.5 151Z" fill="white"/>
<path fill-rule="evenodd" clip-rule="evenodd" d="M193.5 10C193.555 9.99998 193.609 10.0182 193.653 10.0519C193.696 10.0855 193.728 10.1327 193.742 10.186L194.037 11.3001L194.875 11.7836C194.913 11.8055 194.945 11.8371 194.967 11.8751C194.988 11.9131 195 11.9562 195 12.0001C195 12.044 194.988 12.0871 194.967 12.1251C194.945 12.1631 194.913 12.1946 194.875 12.2166L194.037 12.7004L193.742 13.8142C193.727 13.8674 193.696 13.9146 193.652 13.9482C193.609 13.9818 193.555 14 193.5 14C193.445 14 193.391 13.9818 193.347 13.9482C193.304 13.9146 193.272 13.8674 193.258 13.8142L192.963 12.7001L192.125 12.2166C192.087 12.1946 192.055 12.1631 192.033 12.1251C192.012 12.0871 192 12.044 192 12.0001C192 11.9562 192.012 11.9131 192.033 11.8751C192.055 11.8371 192.087 11.8055 192.125 11.7836L192.963 11.2998L193.258 10.186C193.273 10.1327 193.304 10.0856 193.348 10.0519C193.391 10.0183 193.445 10 193.5 10Z" fill="white"/>
<path fill-rule="evenodd" clip-rule="evenodd" d="M53.5 242C53.5552 242 53.6088 242.018 53.6525 242.052C53.6963 242.086 53.7276 242.133 53.7418 242.186L54.0365 243.3L54.875 243.784C54.913 243.806 54.9446 243.837 54.9665 243.875C54.9884 243.913 55 243.956 55 244C55 244.044 54.9884 244.087 54.9665 244.125C54.9446 244.163 54.913 244.195 54.875 244.217L54.0365 244.7L53.7415 245.814C53.7274 245.867 53.696 245.915 53.6523 245.948C53.6086 245.982 53.555 246 53.4999 246C53.4447 246 53.3912 245.982 53.3475 245.948C53.3038 245.915 53.2724 245.867 53.2582 245.814L52.9635 244.7L52.125 244.217C52.087 244.195 52.0554 244.163 52.0335 244.125C52.0116 244.087 52 244.044 52 244C52 243.956 52.0116 243.913 52.0335 243.875C52.0554 243.837 52.087 243.806 52.125 243.784L52.9635 243.3L53.2585 242.186C53.2726 242.133 53.3039 242.086 53.3476 242.052C53.3913 242.018 53.4449 242 53.5 242Z" fill="white"/>
<path fill-rule="evenodd" clip-rule="evenodd" d="M344.5 260C344.555 260 344.609 260.018 344.653 260.052C344.696 260.086 344.728 260.133 344.742 260.186L345.037 261.3L345.875 261.784C345.913 261.806 345.945 261.837 345.967 261.875C345.988 261.913 346 261.956 346 262C346 262.044 345.988 262.087 345.967 262.125C345.945 262.163 345.913 262.195 345.875 262.217L345.037 262.7L344.742 263.814C344.727 263.867 344.696 263.915 344.652 263.948C344.609 263.982 344.555 264 344.5 264C344.445 264 344.391 263.982 344.347 263.948C344.304 263.915 344.272 263.867 344.258 263.814L343.963 262.7L343.125 262.217C343.087 262.195 343.055 262.163 343.033 262.125C343.012 262.087 343 262.044 343 262C343 261.956 343.012 261.913 343.033 261.875C343.055 261.837 343.087 261.806 343.125 261.784L343.963 261.3L344.258 260.186C344.273 260.133 344.304 260.086 344.348 260.052C344.391 260.018 344.445 260 344.5 260Z" fill="white"/>
<path fill-rule="evenodd" clip-rule="evenodd" d="M14.5 616C14.5552 616 14.6088 616.018 14.6525 616.052C14.6963 616.086 14.7276 616.133 14.7418 616.186L15.0365 617.3L15.875 617.784C15.913 617.806 15.9446 617.837 15.9665 617.875C15.9884 617.913 16 617.956 16 618C16 618.044 15.9884 618.087 15.9665 618.125C15.9446 618.163 15.913 618.195 15.875 618.217L15.0365 618.7L14.7415 619.814C14.7274 619.867 14.696 619.915 14.6523 619.948C14.6086 619.982 14.555 620 14.4999 620C14.4447 620 14.3912 619.982 14.3475 619.948C14.3038 619.915 14.2724 619.867 14.2582 619.814L13.9635 618.7L13.125 618.217C13.087 618.195 13.0554 618.163 13.0335 618.125C13.0116 618.087 13 618.044 13 618C13 617.956 13.0116 617.913 13.0335 617.875C13.0554 617.837 13.087 617.806 13.125 617.784L13.9635 617.3L14.2585 616.186C14.2726 616.133 14.3039 616.086 14.3476 616.052C14.3913 616.018 14.4449 616 14.5 616Z" fill="white"/>
<path fill-rule="evenodd" clip-rule="evenodd" d="M129.5 445C129.555 445 129.609 445.018 129.653 445.052C129.696 445.086 129.728 445.133 129.742 445.186L130.037 446.3L130.875 446.784C130.913 446.806 130.945 446.837 130.967 446.875C130.988 446.913 131 446.956 131 447C131 447.044 130.988 447.087 130.967 447.125C130.945 447.163 130.913 447.195 130.875 447.217L130.037 447.7L129.742 448.814C129.727 448.867 129.696 448.915 129.652 448.948C129.609 448.982 129.555 449 129.5 449C129.445 449 129.391 448.982 129.347 448.948C129.304 448.915 129.272 448.867 129.258 448.814L128.963 447.7L128.125 447.217C128.087 447.195 128.055 447.163 128.033 447.125C128.012 447.087 128 447.044 128 447C128 446.956 128.012 446.913 128.033 446.875C128.055 446.837 128.087 446.806 128.125 446.784L128.963 446.3L129.258 445.186C129.273 445.133 129.304 445.086 129.348 445.052C129.391 445.018 129.445 445 129.5 445Z" fill="white"/>
<path fill-rule="evenodd" clip-rule="evenodd" d="M290.5 43C290.555 43 290.609 43.0182 290.653 43.0519C290.696 43.0855 290.728 43.1327 290.742 43.186L291.037 44.3001L291.875 44.7836C291.913 44.8055 291.945 44.8371 291.967 44.8751C291.988 44.9131 292 44.9562 292 45.0001C292 45.044 291.988 45.0871 291.967 45.1251C291.945 45.1631 291.913 45.1946 291.875 45.2166L291.037 45.7004L290.742 46.8142C290.727 46.8674 290.696 46.9146 290.652 46.9482C290.609 46.9818 290.555 47 290.5 47C290.445 47 290.391 46.9818 290.347 46.9482C290.304 46.9146 290.272 46.8674 290.258 46.8142L289.963 45.7001L289.125 45.2166C289.087 45.1946 289.055 45.1631 289.033 45.1251C289.012 45.0871 289 45.044 289 45.0001C289 44.9562 289.012 44.9131 289.033 44.8751C289.055 44.8371 289.087 44.8055 289.125 44.7836L289.963 44.2998L290.258 43.186C290.273 43.1327 290.304 43.0856 290.348 43.0519C290.391 43.0183 290.445 43 290.5 43Z" fill="white"/>
<path fill-rule="evenodd" clip-rule="evenodd" d="M7.5 273C7.55517 273 7.6088 273.018 7.65253 273.052C7.69626 273.086 7.72763 273.133 7.74175 273.186L8.0365 274.3L8.87501 274.784C8.91301 274.806 8.94457 274.837 8.96651 274.875C8.98845 274.913 9 274.956 9 275C9 275.044 8.98845 275.087 8.96651 275.125C8.94457 275.163 8.91301 275.195 8.87501 275.217L8.0365 275.7L7.7415 276.814C7.72735 276.867 7.69599 276.915 7.65229 276.948C7.60859 276.982 7.555 277 7.49987 277C7.44475 277 7.39116 276.982 7.34746 276.948C7.30376 276.915 7.2724 276.867 7.25825 276.814L6.9635 275.7L6.12499 275.217C6.08699 275.195 6.05543 275.163 6.03349 275.125C6.01155 275.087 6 275.044 6 275C6 274.956 6.01155 274.913 6.03349 274.875C6.05543 274.837 6.08699 274.806 6.12499 274.784L6.9635 274.3L7.2585 273.186C7.27261 273.133 7.30394 273.086 7.34762 273.052C7.3913 273.018 7.44487 273 7.5 273Z" fill="white"/>
<path fill-rule="evenodd" clip-rule="evenodd" d="M160.5 414C160.555 414 160.609 414.018 160.653 414.052C160.696 414.086 160.728 414.133 160.742 414.186L161.037 415.3L161.875 415.784C161.913 415.806 161.945 415.837 161.967 415.875C161.988 415.913 162 415.956 162 416C162 416.044 161.988 416.087 161.967 416.125C161.945 416.163 161.913 416.195 161.875 416.217L161.037 416.7L160.742 417.814C160.727 417.867 160.696 417.915 160.652 417.948C160.609 417.982 160.555 418 160.5 418C160.445 418 160.391 417.982 160.347 417.948C160.304 417.915 160.272 417.867 160.258 417.814L159.963 416.7L159.125 416.217C159.087 416.195 159.055 416.163 159.033 416.125C159.012 416.087 159 416.044 159 416C159 415.956 159.012 415.913 159.033 415.875C159.055 415.837 159.087 415.806 159.125 415.784L159.963 415.3L160.258 414.186C160.273 414.133 160.304 414.086 160.348 414.052C160.391 414.018 160.445 414 160.5 414Z" fill="white"/>
<path fill-rule="evenodd" clip-rule="evenodd" d="M73.5 318C73.5552 318 73.6088 318.018 73.6525 318.052C73.6963 318.086 73.7276 318.133 73.7418 318.186L74.0365 319.3L74.875 319.784C74.913 319.806 74.9446 319.837 74.9665 319.875C74.9884 319.913 75 319.956 75 320C75 320.044 74.9884 320.087 74.9665 320.125C74.9446 320.163 74.913 320.195 74.875 320.217L74.0365 320.7L73.7415 321.814C73.7274 321.867 73.696 321.915 73.6523 321.948C73.6086 321.982 73.555 322 73.4999 322C73.4447 322 73.3912 321.982 73.3475 321.948C73.3038 321.915 73.2724 321.867 73.2582 321.814L72.9635 320.7L72.125 320.217C72.087 320.195 72.0554 320.163 72.0335 320.125C72.0116 320.087 72 320.044 72 320C72 319.956 72.0116 319.913 72.0335 319.875C72.0554 319.837 72.087 319.806 72.125 319.784L72.9635 319.3L73.2585 318.186C73.2726 318.133 73.3039 318.086 73.3476 318.052C73.3913 318.018 73.4449 318 73.5 318Z" fill="white"/>
<path fill-rule="evenodd" clip-rule="evenodd" d="M220.5 458C220.555 458 220.609 458.018 220.653 458.052C220.696 458.086 220.728 458.133 220.742 458.186L221.037 459.3L221.875 459.784C221.913 459.806 221.945 459.837 221.967 459.875C221.988 459.913 222 459.956 222 460C222 460.044 221.988 460.087 221.967 460.125C221.945 460.163 221.913 460.195 221.875 460.217L221.037 460.7L220.742 461.814C220.727 461.867 220.696 461.915 220.652 461.948C220.609 461.982 220.555 462 220.5 462C220.445 462 220.391 461.982 220.347 461.948C220.304 461.915 220.272 461.867 220.258 461.814L219.963 460.7L219.125 460.217C219.087 460.195 219.055 460.163 219.033 460.125C219.012 460.087 219 460.044 219 460C219 459.956 219.012 459.913 219.033 459.875C219.055 459.837 219.087 459.806 219.125 459.784L219.963 459.3L220.258 458.186C220.273 458.133 220.304 458.086 220.348 458.052C220.391 458.018 220.445 458 220.5 458Z" fill="white"/>
<path fill-rule="evenodd" clip-rule="evenodd" d="M93.5 159C93.5552 159 93.6088 159.018 93.6525 159.052C93.6963 159.086 93.7276 159.133 93.7418 159.186L94.0365 160.3L94.875 160.784C94.913 160.806 94.9446 160.837 94.9665 160.875C94.9884 160.913 95 160.956 95 161C95 161.044 94.9884 161.087 94.9665 161.125C94.9446 161.163 94.913 161.195 94.875 161.217L94.0365 161.7L93.7415 162.814C93.7274 162.867 93.696 162.915 93.6523 162.948C93.6086 162.982 93.555 163 93.4999 163C93.4447 163 93.3912 162.982 93.3475 162.948C93.3038 162.915 93.2724 162.867 93.2582 162.814L92.9635 161.7L92.125 161.217C92.087 161.195 92.0554 161.163 92.0335 161.125C92.0116 161.087 92 161.044 92 161C92 160.956 92.0116 160.913 92.0335 160.875C92.0554 160.837 92.087 160.806 92.125 160.784L92.9635 160.3L93.2585 159.186C93.2726 159.133 93.3039 159.086 93.3476 159.052C93.3913 159.018 93.4449 159 93.5 159Z" fill="white"/>
<path fill-rule="evenodd" clip-rule="evenodd" d="M153.5 20C153.555 20 153.609 20.0182 153.653 20.0519C153.696 20.0855 153.728 20.1327 153.742 20.186L154.037 21.3001L154.875 21.7836C154.913 21.8055 154.945 21.8371 154.967 21.8751C154.988 21.9131 155 21.9562 155 22.0001C155 22.044 154.988 22.0871 154.967 22.1251C154.945 22.1631 154.913 22.1946 154.875 22.2166L154.037 22.7004L153.742 23.8142C153.727 23.8674 153.696 23.9146 153.652 23.9482C153.609 23.9818 153.555 24 153.5 24C153.445 24 153.391 23.9818 153.347 23.9482C153.304 23.9146 153.272 23.8674 153.258 23.8142L152.963 22.7001L152.125 22.2166C152.087 22.1946 152.055 22.1631 152.033 22.1251C152.012 22.0871 152 22.044 152 22.0001C152 21.9562 152.012 21.9131 152.033 21.8751C152.055 21.8371 152.087 21.8055 152.125 21.7836L152.963 21.2998L153.258 20.186C153.273 20.1327 153.304 20.0856 153.348 20.0519C153.391 20.0183 153.445 20 153.5 20Z" fill="white"/>
<path fill-rule="evenodd" clip-rule="evenodd" d="M17.5 228C17.5552 228 17.6088 228.018 17.6525 228.052C17.6963 228.086 17.7276 228.133 17.7418 228.186L18.0365 229.3L18.875 229.784C18.913 229.806 18.9446 229.837 18.9665 229.875C18.9884 229.913 19 229.956 19 230C19 230.044 18.9884 230.087 18.9665 230.125C18.9446 230.163 18.913 230.195 18.875 230.217L18.0365 230.7L17.7415 231.814C17.7274 231.867 17.696 231.915 17.6523 231.948C17.6086 231.982 17.555 232 17.4999 232C17.4447 232 17.3912 231.982 17.3475 231.948C17.3038 231.915 17.2724 231.867 17.2582 231.814L16.9635 230.7L16.125 230.217C16.087 230.195 16.0554 230.163 16.0335 230.125C16.0116 230.087 16 230.044 16 230C16 229.956 16.0116 229.913 16.0335 229.875C16.0554 229.837 16.087 229.806 16.125 229.784L16.9635 229.3L17.2585 228.186C17.2726 228.133 17.3039 228.086 17.3476 228.052C17.3913 228.018 17.4449 228 17.5 228Z" fill="white"/>
<path fill-rule="evenodd" clip-rule="evenodd" d="M341.5 295C341.555 295 341.609 295.018 341.653 295.052C341.696 295.086 341.728 295.133 341.742 295.186L342.037 296.3L342.875 296.784C342.913 296.806 342.945 296.837 342.967 296.875C342.988 296.913 343 296.956 343 297C343 297.044 342.988 297.087 342.967 297.125C342.945 297.163 342.913 297.195 342.875 297.217L342.037 297.7L341.742 298.814C341.727 298.867 341.696 298.915 341.652 298.948C341.609 298.982 341.555 299 341.5 299C341.445 299 341.391 298.982 341.347 298.948C341.304 298.915 341.272 298.867 341.258 298.814L340.963 297.7L340.125 297.217C340.087 297.195 340.055 297.163 340.033 297.125C340.012 297.087 340 297.044 340 297C340 296.956 340.012 296.913 340.033 296.875C340.055 296.837 340.087 296.806 340.125 296.784L340.963 296.3L341.258 295.186C341.273 295.133 341.304 295.086 341.348 295.052C341.391 295.018 341.445 295 341.5 295Z" fill="white"/>
<path fill-rule="evenodd" clip-rule="evenodd" d="M240.5 376C240.555 376 240.609 376.018 240.653 376.052C240.696 376.086 240.728 376.133 240.742 376.186L241.037 377.3L241.875 377.784C241.913 377.806 241.945 377.837 241.967 377.875C241.988 377.913 242 377.956 242 378C242 378.044 241.988 378.087 241.967 378.125C241.945 378.163 241.913 378.195 241.875 378.217L241.037 378.7L240.742 379.814C240.727 379.867 240.696 379.915 240.652 379.948C240.609 379.982 240.555 380 240.5 380C240.445 380 240.391 379.982 240.347 379.948C240.304 379.915 240.272 379.867 240.258 379.814L239.963 378.7L239.125 378.217C239.087 378.195 239.055 378.163 239.033 378.125C239.012 378.087 239 378.044 239 378C239 377.956 239.012 377.913 239.033 377.875C239.055 377.837 239.087 377.806 239.125 377.784L239.963 377.3L240.258 376.186C240.273 376.133 240.304 376.086 240.348 376.052C240.391 376.018 240.445 376 240.5 376Z" fill="white"/>
<path fill-rule="evenodd" clip-rule="evenodd" d="M313.5 271C313.555 271 313.609 271.018 313.653 271.052C313.696 271.086 313.728 271.133 313.742 271.186L314.037 272.3L314.875 272.784C314.913 272.806 314.945 272.837 314.967 272.875C314.988 272.913 315 272.956 315 273C315 273.044 314.988 273.087 314.967 273.125C314.945 273.163 314.913 273.195 314.875 273.217L314.037 273.7L313.742 274.814C313.727 274.867 313.696 274.915 313.652 274.948C313.609 274.982 313.555 275 313.5 275C313.445 275 313.391 274.982 313.347 274.948C313.304 274.915 313.272 274.867 313.258 274.814L312.963 273.7L312.125 273.217C312.087 273.195 312.055 273.163 312.033 273.125C312.012 273.087 312 273.044 312 273C312 272.956 312.012 272.913 312.033 272.875C312.055 272.837 312.087 272.806 312.125 272.784L312.963 272.3L313.258 271.186C313.273 271.133 313.304 271.086 313.348 271.052C313.391 271.018 313.445 271 313.5 271Z" fill="white"/>
<path fill-rule="evenodd" clip-rule="evenodd" d="M329.5 449C329.555 449 329.609 449.018 329.653 449.052C329.696 449.086 329.728 449.133 329.742 449.186L330.037 450.3L330.875 450.784C330.913 450.806 330.945 450.837 330.967 450.875C330.988 450.913 331 450.956 331 451C331 451.044 330.988 451.087 330.967 451.125C330.945 451.163 330.913 451.195 330.875 451.217L330.037 451.7L329.742 452.814C329.727 452.867 329.696 452.915 329.652 452.948C329.609 452.982 329.555 453 329.5 453C329.445 453 329.391 452.982 329.347 452.948C329.304 452.915 329.272 452.867 329.258 452.814L328.963 451.7L328.125 451.217C328.087 451.195 328.055 451.163 328.033 451.125C328.012 451.087 328 451.044 328 451C328 450.956 328.012 450.913 328.033 450.875C328.055 450.837 328.087 450.806 328.125 450.784L328.963 450.3L329.258 449.186C329.273 449.133 329.304 449.086 329.348 449.052C329.391 449.018 329.445 449 329.5 449Z" fill="white"/>
<path fill-rule="evenodd" clip-rule="evenodd" d="M151.5 625C151.555 625 151.609 625.018 151.653 625.052C151.696 625.086 151.728 625.133 151.742 625.186L152.037 626.3L152.875 626.784C152.913 626.806 152.945 626.837 152.967 626.875C152.988 626.913 153 626.956 153 627C153 627.044 152.988 627.087 152.967 627.125C152.945 627.163 152.913 627.195 152.875 627.217L152.037 627.7L151.742 628.814C151.727 628.867 151.696 628.915 151.652 628.948C151.609 628.982 151.555 629 151.5 629C151.445 629 151.391 628.982 151.347 628.948C151.304 628.915 151.272 628.867 151.258 628.814L150.963 627.7L150.125 627.217C150.087 627.195 150.055 627.163 150.033 627.125C150.012 627.087 150 627.044 150 627C150 626.956 150.012 626.913 150.033 626.875C150.055 626.837 150.087 626.806 150.125 626.784L150.963 626.3L151.258 625.186C151.273 625.133 151.304 625.086 151.348 625.052C151.391 625.018 151.445 625 151.5 625Z" fill="white"/>
<path fill-rule="evenodd" clip-rule="evenodd" d="M222.5 35C222.555 35 222.609 35.0182 222.653 35.0519C222.696 35.0855 222.728 35.1327 222.742 35.186L223.037 36.3001L223.875 36.7836C223.913 36.8055 223.945 36.8371 223.967 36.8751C223.988 36.9131 224 36.9562 224 37.0001C224 37.044 223.988 37.0871 223.967 37.1251C223.945 37.1631 223.913 37.1946 223.875 37.2166L223.037 37.7004L222.742 38.8142C222.727 38.8674 222.696 38.9146 222.652 38.9482C222.609 38.9818 222.555 39 222.5 39C222.445 39 222.391 38.9818 222.347 38.9482C222.304 38.9146 222.272 38.8674 222.258 38.8142L221.963 37.7001L221.125 37.2166C221.087 37.1946 221.055 37.1631 221.033 37.1251C221.012 37.0871 221 37.044 221 37.0001C221 36.9562 221.012 36.9131 221.033 36.8751C221.055 36.8371 221.087 36.8055 221.125 36.7836L221.963 36.2998L222.258 35.186C222.273 35.1327 222.304 35.0856 222.348 35.0519C222.391 35.0183 222.445 35 222.5 35Z" fill="white"/>
<path fill-rule="evenodd" clip-rule="evenodd" d="M42 179C42.1103 179 42.2176 179.036 42.3051 179.104C42.3925 179.171 42.4553 179.265 42.4835 179.372L43.073 181.6L44.75 182.567C44.826 182.611 44.8891 182.674 44.933 182.75C44.9769 182.826 45 182.912 45 183C45 183.088 44.9769 183.174 44.933 183.25C44.8891 183.326 44.826 183.389 44.75 183.433L43.073 184.401L42.483 186.628C42.4547 186.735 42.392 186.829 42.3046 186.896C42.2172 186.964 42.11 187 41.9997 187C41.8895 187 41.7823 186.964 41.6949 186.896C41.6075 186.829 41.5448 186.735 41.5165 186.628L40.927 184.4L39.25 183.433C39.174 183.389 39.1109 183.326 39.067 183.25C39.0231 183.174 39 183.088 39 183C39 182.912 39.0231 182.826 39.067 182.75C39.1109 182.674 39.174 182.611 39.25 182.567L40.927 181.6L41.517 179.372C41.5452 179.265 41.6079 179.171 41.6952 179.104C41.7826 179.037 41.8897 179 42 179Z" fill="white"/>
<path fill-rule="evenodd" clip-rule="evenodd" d="M28 110C28.1103 110 28.2176 110.036 28.3051 110.104C28.3925 110.171 28.4553 110.265 28.4835 110.372L29.073 112.6L30.75 113.567C30.826 113.611 30.8891 113.674 30.933 113.75C30.9769 113.826 31 113.912 31 114C31 114.088 30.9769 114.174 30.933 114.25C30.8891 114.326 30.826 114.389 30.75 114.433L29.073 115.401L28.483 117.628C28.4547 117.735 28.392 117.829 28.3046 117.896C28.2172 117.964 28.11 118 27.9997 118C27.8895 118 27.7823 117.964 27.6949 117.896C27.6075 117.829 27.5448 117.735 27.5165 117.628L26.927 115.4L25.25 114.433C25.174 114.389 25.1109 114.326 25.067 114.25C25.0231 114.174 25 114.088 25 114C25 113.912 25.0231 113.826 25.067 113.75C25.1109 113.674 25.174 113.611 25.25 113.567L26.927 112.6L27.517 110.372C27.5452 110.265 27.6079 110.171 27.6952 110.104C27.7826 110.037 27.8897 110 28 110Z" fill="white"/>
<path fill-rule="evenodd" clip-rule="evenodd" d="M342 165C342.11 165 342.218 165.036 342.305 165.104C342.393 165.171 342.455 165.265 342.484 165.372L343.073 167.6L344.75 168.567C344.826 168.611 344.889 168.674 344.933 168.75C344.977 168.826 345 168.912 345 169C345 169.088 344.977 169.174 344.933 169.25C344.889 169.326 344.826 169.389 344.75 169.433L343.073 170.401L342.483 172.628C342.455 172.735 342.392 172.829 342.305 172.896C342.217 172.964 342.11 173 342 173C341.889 173 341.782 172.964 341.695 172.896C341.608 172.829 341.545 172.735 341.516 172.628L340.927 170.4L339.25 169.433C339.174 169.389 339.111 169.326 339.067 169.25C339.023 169.174 339 169.088 339 169C339 168.912 339.023 168.826 339.067 168.75C339.111 168.674 339.174 168.611 339.25 168.567L340.927 167.6L341.517 165.372C341.545 165.265 341.608 165.171 341.695 165.104C341.783 165.037 341.89 165 342 165Z" fill="white"/>
<path fill-rule="evenodd" clip-rule="evenodd" d="M283 2C283.11 1.99996 283.218 2.03643 283.305 2.10372C283.393 2.17101 283.455 2.26534 283.484 2.37202L284.073 4.60011L285.75 5.56715C285.826 5.61104 285.889 5.67416 285.933 5.75017C285.977 5.82618 286 5.9124 286 6.00017C286 6.08793 285.977 6.17416 285.933 6.25017C285.889 6.32618 285.826 6.3893 285.75 6.43318L284.073 7.40072L283.483 9.62832C283.455 9.73489 283.392 9.82911 283.305 9.89633C283.217 9.96355 283.11 10 283 10C282.889 10 282.782 9.96355 282.695 9.89633C282.608 9.82911 282.545 9.73489 282.516 9.62832L281.927 7.40022L280.25 6.43318C280.174 6.3893 280.111 6.32618 280.067 6.25017C280.023 6.17416 280 6.08793 280 6.00017C280 5.9124 280.023 5.82618 280.067 5.75017C280.111 5.67416 280.174 5.61104 280.25 5.56715L281.927 4.59961L282.517 2.37202C282.545 2.26543 282.608 2.17116 282.695 2.10388C282.783 2.03659 282.89 2.00007 283 2Z" fill="white"/>
<path fill-rule="evenodd" clip-rule="evenodd" d="M283 110C283.11 110 283.218 110.036 283.305 110.104C283.393 110.171 283.455 110.265 283.484 110.372L284.073 112.6L285.75 113.567C285.826 113.611 285.889 113.674 285.933 113.75C285.977 113.826 286 113.912 286 114C286 114.088 285.977 114.174 285.933 114.25C285.889 114.326 285.826 114.389 285.75 114.433L284.073 115.401L283.483 117.628C283.455 117.735 283.392 117.829 283.305 117.896C283.217 117.964 283.11 118 283 118C282.889 118 282.782 117.964 282.695 117.896C282.608 117.829 282.545 117.735 282.516 117.628L281.927 115.4L280.25 114.433C280.174 114.389 280.111 114.326 280.067 114.25C280.023 114.174 280 114.088 280 114C280 113.912 280.023 113.826 280.067 113.75C280.111 113.674 280.174 113.611 280.25 113.567L281.927 112.6L282.517 110.372C282.545 110.265 282.608 110.171 282.695 110.104C282.783 110.037 282.89 110 283 110Z" fill="white"/>
<path fill-rule="evenodd" clip-rule="evenodd" d="M28 310C28.1103 310 28.2176 310.036 28.3051 310.104C28.3925 310.171 28.4553 310.265 28.4835 310.372L29.073 312.6L30.75 313.567C30.826 313.611 30.8891 313.674 30.933 313.75C30.9769 313.826 31 313.912 31 314C31 314.088 30.9769 314.174 30.933 314.25C30.8891 314.326 30.826 314.389 30.75 314.433L29.073 315.401L28.483 317.628C28.4547 317.735 28.392 317.829 28.3046 317.896C28.2172 317.964 28.11 318 27.9997 318C27.8895 318 27.7823 317.964 27.6949 317.896C27.6075 317.829 27.5448 317.735 27.5165 317.628L26.927 315.4L25.25 314.433C25.174 314.389 25.1109 314.326 25.067 314.25C25.0231 314.174 25 314.088 25 314C25 313.912 25.0231 313.826 25.067 313.75C25.1109 313.674 25.174 313.611 25.25 313.567L26.927 312.6L27.517 310.372C27.5452 310.265 27.6079 310.171 27.6952 310.104C27.7826 310.037 27.8897 310 28 310Z" fill="white"/>
<path fill-rule="evenodd" clip-rule="evenodd" d="M76 458C76.1103 458 76.2176 458.036 76.3051 458.104C76.3925 458.171 76.4553 458.265 76.4835 458.372L77.073 460.6L78.75 461.567C78.826 461.611 78.8891 461.674 78.933 461.75C78.9769 461.826 79 461.912 79 462C79 462.088 78.9769 462.174 78.933 462.25C78.8891 462.326 78.826 462.389 78.75 462.433L77.073 463.401L76.483 465.628C76.4547 465.735 76.392 465.829 76.3046 465.896C76.2172 465.964 76.11 466 75.9997 466C75.8895 466 75.7823 465.964 75.6949 465.896C75.6075 465.829 75.5448 465.735 75.5165 465.628L74.927 463.4L73.25 462.433C73.174 462.389 73.1109 462.326 73.067 462.25C73.0231 462.174 73 462.088 73 462C73 461.912 73.0231 461.826 73.067 461.75C73.1109 461.674 73.174 461.611 73.25 461.567L74.927 460.6L75.517 458.372C75.5452 458.265 75.6079 458.171 75.6952 458.104C75.7826 458.037 75.8897 458 76 458Z" fill="white"/>
<path fill-rule="evenodd" clip-rule="evenodd" d="M140 324C140.11 324 140.218 324.036 140.305 324.104C140.393 324.171 140.455 324.265 140.484 324.372L141.073 326.6L142.75 327.567C142.826 327.611 142.889 327.674 142.933 327.75C142.977 327.826 143 327.912 143 328C143 328.088 142.977 328.174 142.933 328.25C142.889 328.326 142.826 328.389 142.75 328.433L141.073 329.401L140.483 331.628C140.455 331.735 140.392 331.829 140.305 331.896C140.217 331.964 140.11 332 140 332C139.889 332 139.782 331.964 139.695 331.896C139.608 331.829 139.545 331.735 139.516 331.628L138.927 329.4L137.25 328.433C137.174 328.389 137.111 328.326 137.067 328.25C137.023 328.174 137 328.088 137 328C137 327.912 137.023 327.826 137.067 327.75C137.111 327.674 137.174 327.611 137.25 327.567L138.927 326.6L139.517 324.372C139.545 324.265 139.608 324.171 139.695 324.104C139.783 324.037 139.89 324 140 324Z" fill="white"/>
<path fill-rule="evenodd" clip-rule="evenodd" d="M256 328C256.11 328 256.218 328.036 256.305 328.104C256.393 328.171 256.455 328.265 256.484 328.372L257.073 330.6L258.75 331.567C258.826 331.611 258.889 331.674 258.933 331.75C258.977 331.826 259 331.912 259 332C259 332.088 258.977 332.174 258.933 332.25C258.889 332.326 258.826 332.389 258.75 332.433L257.073 333.401L256.483 335.628C256.455 335.735 256.392 335.829 256.305 335.896C256.217 335.964 256.11 336 256 336C255.889 336 255.782 335.964 255.695 335.896C255.608 335.829 255.545 335.735 255.516 335.628L254.927 333.4L253.25 332.433C253.174 332.389 253.111 332.326 253.067 332.25C253.023 332.174 253 332.088 253 332C253 331.912 253.023 331.826 253.067 331.75C253.111 331.674 253.174 331.611 253.25 331.567L254.927 330.6L255.517 328.372C255.545 328.265 255.608 328.171 255.695 328.104C255.783 328.037 255.89 328 256 328Z" fill="white"/>
<path fill-rule="evenodd" clip-rule="evenodd" d="M73.5 213C73.5552 213 73.6088 213.018 73.6525 213.052C73.6963 213.086 73.7276 213.133 73.7418 213.186L74.0365 214.3L74.875 214.784C74.913 214.806 74.9446 214.837 74.9665 214.875C74.9884 214.913 75 214.956 75 215C75 215.044 74.9884 215.087 74.9665 215.125C74.9446 215.163 74.913 215.195 74.875 215.217L74.0365 215.7L73.7415 216.814C73.7274 216.867 73.696 216.915 73.6523 216.948C73.6086 216.982 73.555 217 73.4999 217C73.4447 217 73.3912 216.982 73.3475 216.948C73.3038 216.915 73.2724 216.867 73.2582 216.814L72.9635 215.7L72.125 215.217C72.087 215.195 72.0554 215.163 72.0335 215.125C72.0116 215.087 72 215.044 72 215C72 214.956 72.0116 214.913 72.0335 214.875C72.0554 214.837 72.087 214.806 72.125 214.784L72.9635 214.3L73.2585 213.186C73.2726 213.133 73.3039 213.086 73.3476 213.052C73.3913 213.018 73.4449 213 73.5 213Z" fill="white"/>
</g>
<defs>
<filter id="filter0_dd_320_3331" x="0" y="0" width="352" height="639" filterUnits="userSpaceOnUse" color-interpolation-filters="sRGB">
<feFlood flood-opacity="0" result="BackgroundImageFix"/>
<feColorMatrix in="SourceAlpha" type="matrix" values="0 0 0 0 0 0 0 0 0 0 0 0 0 0 0 0 0 0 127 0" result="hardAlpha"/>
<feOffset dy="4"/>
<feGaussianBlur stdDeviation="3"/>
<feComposite in2="hardAlpha" operator="out"/>
<feColorMatrix type="matrix" values="0 0 0 0 0 0 0 0 0 0 0 0 0 0 0 0 0 0 0.1 0"/>
<feBlend mode="normal" in2="BackgroundImageFix" result="effect1_dropShadow_320_3331"/>
<feColorMatrix in="SourceAlpha" type="matrix" values="0 0 0 0 0 0 0 0 0 0 0 0 0 0 0 0 0 0 127 0" result="hardAlpha"/>
<feOffset dy="2"/>
<feGaussianBlur stdDeviation="2"/>
<feComposite in2="hardAlpha" operator="out"/>
<feColorMatrix type="matrix" values="0 0 0 0 0 0 0 0 0 0 0 0 0 0 0 0 0 0 0.05 0"/>
<feBlend mode="normal" in2="effect1_dropShadow_320_3331" result="effect2_dropShadow_320_3331"/>
<feBlend mode="normal" in="SourceGraphic" in2="effect2_dropShadow_320_3331" result="shape"/>
</filter>
</defs>
</svg>
