<svg width="342" height="178" viewBox="0 0 342 178" fill="none" xmlns="http://www.w3.org/2000/svg">
<g opacity="0.4" filter="url(#filter0_dd_316_3187)">
<rect x="49" y="154" width="103" height="14" rx="7" fill="white"/>
<rect x="34" y="134" width="52.9765" height="14.2132" rx="7.10661" fill="white"/>
<path fill-rule="evenodd" clip-rule="evenodd" d="M65 154.461H79.1784C77.4104 154.442 75.983 153.003 75.983 151.23C75.983 149.446 77.4292 148 79.2133 148H108.967L108.932 148H65C66.784 148 68.2303 149.446 68.2303 151.23C68.2303 153.014 66.784 154.461 65 154.461Z" fill="white"/>
<rect x="288" y="97" width="48" height="14" rx="7" fill="white"/>
<rect x="6" y="71" width="48" height="14" rx="7" fill="white"/>
<rect x="215" y="2" width="57" height="14" rx="7" fill="white"/>
<rect x="227" y="21" width="72" height="14" rx="7" fill="white"/>
<path fill-rule="evenodd" clip-rule="evenodd" d="M243.612 21.6739H257.791C256.022 21.6554 254.595 20.2163 254.595 18.4438C254.595 16.6598 256.041 15.2136 257.825 15.2136H287.578L287.544 15.2134H243.612C245.396 15.2134 246.842 16.6596 246.842 18.4437C246.842 20.2277 245.396 21.6739 243.612 21.6739Z" fill="white"/>
</g>
<defs>
<filter id="filter0_dd_316_3187" x="0" y="0" width="342" height="178" filterUnits="userSpaceOnUse" color-interpolation-filters="sRGB">
<feFlood flood-opacity="0" result="BackgroundImageFix"/>
<feColorMatrix in="SourceAlpha" type="matrix" values="0 0 0 0 0 0 0 0 0 0 0 0 0 0 0 0 0 0 127 0" result="hardAlpha"/>
<feOffset dy="4"/>
<feGaussianBlur stdDeviation="3"/>
<feComposite in2="hardAlpha" operator="out"/>
<feColorMatrix type="matrix" values="0 0 0 0 0 0 0 0 0 0 0 0 0 0 0 0 0 0 0.1 0"/>
<feBlend mode="normal" in2="BackgroundImageFix" result="effect1_dropShadow_316_3187"/>
<feColorMatrix in="SourceAlpha" type="matrix" values="0 0 0 0 0 0 0 0 0 0 0 0 0 0 0 0 0 0 127 0" result="hardAlpha"/>
<feOffset dy="2"/>
<feGaussianBlur stdDeviation="2"/>
<feComposite in2="hardAlpha" operator="out"/>
<feColorMatrix type="matrix" values="0 0 0 0 0 0 0 0 0 0 0 0 0 0 0 0 0 0 0.05 0"/>
<feBlend mode="normal" in2="effect1_dropShadow_316_3187" result="effect2_dropShadow_316_3187"/>
<feBlend mode="normal" in="SourceGraphic" in2="effect2_dropShadow_316_3187" result="shape"/>
</filter>
</defs>
</svg>
