<svg width="160" height="160" viewBox="0 0 160 160" fill="none" xmlns="http://www.w3.org/2000/svg">
<path d="M79.7591 159.518C123.809 159.518 159.518 123.809 159.518 79.7591C159.518 35.7094 123.809 0 79.7591 0C35.7094 0 0 35.7094 0 79.7591C0 123.809 35.7094 159.518 79.7591 159.518Z" fill="url(#paint0_linear_638_7061)"/>
<path d="M141.706 105.639C140.84 105.221 139.842 105.163 138.934 105.479C138.025 105.795 137.279 106.459 136.86 107.324C135.034 111.094 132.84 114.674 130.31 118.013C129.715 111.587 127.951 96.4535 123.48 81.1027C120.033 69.2721 115.691 59.7895 110.558 52.9194C103.747 43.7955 95.5314 39.172 86.14 39.172C76.1372 39.172 67.4989 44.6706 60.4626 55.5174C55.1827 63.6593 50.7719 74.9029 47.3554 88.9547C45.1908 97.8539 43.7011 106.692 42.6833 114.301C42.249 116.393 41.8722 118.607 41.5529 120.944C41.112 124.171 40.838 127.215 40.6675 129.822C38.5906 128.201 36.6147 126.455 34.7507 124.593C28.6746 118.523 23.8958 111.285 20.7036 103.317C17.5114 95.3483 15.9724 86.8158 16.1797 78.2361C16.387 69.6564 18.3364 61.208 21.9097 53.4026C25.4831 45.5973 30.606 38.5975 36.9682 32.8272C43.3303 27.0569 50.7994 22.6363 58.9228 19.8331C67.0463 17.0298 75.6551 15.9024 84.2277 16.5189C92.8004 17.1355 101.158 19.4833 108.796 23.4201C116.433 27.3569 123.19 32.8008 128.659 39.422C129.273 40.1562 130.154 40.6177 131.108 40.7058C132.063 40.7939 133.013 40.5015 133.752 39.8924C134.492 39.2833 134.959 38.4069 135.054 37.4546C135.148 36.5022 134.861 35.5513 134.256 34.8093C125.134 23.7549 112.864 15.7286 99.0708 11.7938C85.2778 7.85891 70.6131 8.20115 57.0193 12.7752C43.4255 17.3492 31.5441 25.9391 22.9492 37.407C14.3542 48.8749 9.45119 62.6796 8.88971 76.9923C8.32824 91.3051 12.1348 105.45 19.805 117.555C27.4753 129.659 38.6473 139.15 51.8412 144.772C65.035 150.394 79.6279 151.88 93.6869 149.035C107.746 146.189 120.607 139.146 130.567 128.838C135.789 123.44 140.117 117.247 143.39 110.491C143.599 110.062 143.722 109.596 143.751 109.12C143.779 108.644 143.714 108.166 143.557 107.716C143.401 107.265 143.157 106.849 142.839 106.493C142.521 106.137 142.136 105.846 141.706 105.639ZM66.5753 59.4253C69.3151 55.2076 72.3052 51.9755 75.4659 49.8141C78.8008 47.5295 82.2935 46.4189 86.14 46.4189C93.2017 46.4189 99.2781 49.95 104.716 57.2114C108.131 61.7733 111.188 67.7194 113.844 74.9663C111.438 73.2066 108.803 72.3266 105.937 72.3266C99.9168 72.3266 94.8691 76.6549 90.9427 85.1899C88.1849 91.1813 85.8715 99.441 84.068 109.737C83.745 111.581 83.4493 113.424 83.1807 115.243C78.808 97.9572 72.0258 89.1993 62.9937 89.1993C59.7882 89.1785 56.6608 90.1864 54.0723 92.0745C54.1902 91.5763 54.3081 91.0762 54.4352 90.578C57.6557 77.347 61.7418 66.8661 66.5753 59.4253ZM47.9596 134.73C48.1718 131.3 48.7053 124.222 49.861 115.504C51.2618 108.88 53.479 102.631 56.9154 99.1511C58.7135 97.3394 60.7021 96.4462 62.9937 96.4462C65.8006 96.4462 68.4605 98.6094 70.9009 102.878C73.2269 106.949 75.2355 112.728 76.8684 120.055C78.9187 129.262 79.8332 138.591 80.1888 143.16C80.0073 143.16 79.835 143.16 79.6572 143.16C68.532 143.187 57.5972 140.279 47.9596 134.73ZM113.842 133.201C105.967 138.235 97.0703 141.461 87.7948 142.645C88.0578 137.466 88.9142 124.11 91.2276 110.922C92.9259 101.256 95.0506 93.609 97.5472 88.1938C99.367 84.2623 102.288 79.5736 105.937 79.5736C108.744 79.5736 111.404 81.7368 113.842 86.0052C116.17 90.078 118.177 95.8574 119.808 103.182C121.815 112.201 122.735 121.336 123.105 126.01C120.245 128.686 117.145 131.093 113.842 133.201Z" fill="white"/>
<path d="M78.7649 66.3068H48.7105C47.7501 66.3068 46.8291 65.9252 46.15 65.246C45.4709 64.5667 45.0894 63.6455 45.0894 62.685C45.0894 61.7244 45.4709 60.8032 46.15 60.124C46.8291 59.4447 47.7501 59.0632 48.7105 59.0632C49.6708 59.0632 50.5918 58.6816 51.2709 58.0024C51.95 57.3232 52.3315 56.4019 52.3315 55.4414C52.3315 54.4808 51.95 53.5596 51.2709 52.8804C50.5918 52.2012 49.6708 51.8196 48.7105 51.8196H30.6054C29.645 51.8196 28.724 52.2012 28.0449 52.8804C27.3659 53.5596 26.9844 54.4808 26.9844 55.4414C26.9844 56.4019 27.3659 57.3232 28.0449 58.0024C28.724 58.6816 29.645 59.0632 30.6054 59.0632H30.5312H35.3127C36.2731 59.0533 37.198 59.4255 37.884 60.0977C38.5701 60.77 38.961 61.6873 38.9708 62.6478C38.9807 63.6084 38.6086 64.5335 37.9365 65.2197C37.2644 65.9059 36.3473 66.2969 35.3869 66.3068H35.8559C34.8955 66.3068 33.9745 66.6883 33.2954 67.3676C32.6163 68.0468 32.2348 68.968 32.2348 69.9286C32.2348 70.8891 32.6163 71.8103 33.2954 72.4896C33.9745 73.1688 34.8955 73.5504 35.8559 73.5504H78.7649C79.7252 73.5504 80.6463 73.1688 81.3253 72.4896C82.0044 71.8103 82.3859 70.8891 82.3859 69.9286C82.3859 68.968 82.0044 68.0468 81.3253 67.3676C80.6463 66.6883 79.7252 66.3068 78.7649 66.3068Z" fill="white"/>
<defs>
<linearGradient id="paint0_linear_638_7061" x1="80.1629" y1="105.455" x2="124.226" y2="152.605" gradientUnits="userSpaceOnUse">
<stop stop-color="#E0B139"/>
<stop offset="1" stop-color="#DFA91F"/>
</linearGradient>
</defs>
</svg>
