<svg width="258" height="243" viewBox="0 0 258 243" fill="none" xmlns="http://www.w3.org/2000/svg">
<g filter="url(#filter0_f_619_7063)">
<circle cx="136.5" cy="121.5" r="106.5" fill="url(#paint0_linear_619_7063)" fill-opacity="0.3"/>
</g>
<circle cx="136.5" cy="124.5" r="101.5" fill="url(#paint1_linear_619_7063)"/>
<g filter="url(#filter1_f_619_7063)">
<path fill-rule="evenodd" clip-rule="evenodd" d="M51.063 107.593C51.063 163.65 96.5061 209.093 152.563 209.093C177.497 209.093 200.331 200.103 218 185.186C199.497 210.014 169.908 226.093 136.563 226.093C80.5061 226.093 35.063 180.65 35.063 124.593C35.063 93.4701 49.0709 65.6188 71.126 47C58.5228 63.911 51.063 84.8809 51.063 107.593Z" fill="url(#paint2_linear_619_7063)"/>
</g>
<g filter="url(#filter2_f_619_7063)">
<circle cx="157.57" cy="105.57" r="12" transform="rotate(122.525 157.57 105.57)" fill="url(#paint3_linear_619_7063)"/>
</g>
<g filter="url(#filter3_f_619_7063)">
<circle cx="180.436" cy="148.884" r="27" transform="rotate(122.525 180.436 148.884)" fill="url(#paint4_linear_619_7063)"/>
</g>
<g filter="url(#filter4_f_619_7063)">
<circle cx="121.236" cy="146.236" r="19" transform="rotate(122.525 121.236 146.236)" fill="url(#paint5_linear_619_7063)"/>
</g>
<g filter="url(#filter5_dd_619_7063)">
<path d="M62.8359 170.162C61.7693 164.695 57.3918 164.329 55.3364 164.829C41.5041 185.162 47.5037 191.495 48.3369 191.995C49.1702 192.495 66.169 192.162 68.8354 191.995C71.5019 191.829 72.6685 190.495 70.502 188.162C68.7688 186.295 60.5583 186.162 56.6697 186.329C59.1695 183.218 63.9025 175.629 62.8359 170.162Z" fill="url(#paint6_linear_619_7063)"/>
<path d="M69.4757 173.017C62.9174 172.75 58.4401 175.678 56.8636 179.532C55.1294 195.234 65.0615 196.403 70.1064 196.904C75.1512 197.405 78.9349 195.902 82.8762 193.396C86.8175 190.89 86.6598 181.859 86.6598 181.024C86.6598 180.188 86.1869 179.532 84.1374 177.694C82.0879 175.857 77.6737 173.351 69.4757 173.017Z" fill="url(#paint7_linear_619_7063)"/>
<path d="M70.108 174.363C60.8579 174.859 59.3018 177.973 58.6629 180.485C58.6629 182.441 60.5443 185.283 70.108 185.945C79.6717 186.606 85.6294 181.146 85.3158 180.485C85.0023 179.823 79.3581 173.866 70.108 174.363Z" fill="url(#paint8_linear_619_7063)"/>
<ellipse cx="10.9998" cy="166.333" rx="4.66633" ry="4.66667" fill="url(#paint9_linear_619_7063)"/>
<path d="M52.453 136.882C48.0229 137.621 38.9314 135.159 34.9394 133.835C24.749 136.236 32.743 144.867 36.097 146.465C39.451 148.063 47.258 149.185 52.6755 147.487C57.0095 146.127 63.0627 139.672 65.5475 136.614C73.8959 135.5 72.4071 132.383 70.6191 130.963C68.6645 129.232 57.9905 135.959 52.453 136.882Z" fill="url(#paint10_linear_619_7063)"/>
<path d="M11.0386 83.216C18.7047 86.8825 25.871 102.438 29.2041 111.383C29.2041 114.05 26.371 116.383 25.371 113.05C24.3711 109.716 15.5379 104.725 12.372 99.8829C6.70568 91.216 2.06812 78.9257 11.0386 83.216Z" fill="url(#paint11_linear_619_7063)"/>
<path d="M29.672 86.6225C28.5148 93.3563 30.5053 103.567 32.6718 107.956C33.659 109.956 35.1453 110.956 35.6716 108.456C37.0048 102.123 36.6715 93.4558 35.6716 88.1225C34.6717 82.7891 31.5052 75.9558 29.672 86.6225Z" fill="url(#paint12_linear_619_7063)"/>
<path d="M16.6395 159.596C12.9064 166.796 14.5285 173.596 15.8062 176.096C19.0059 185.563 27.5832 189.04 31.4719 189.596C30.8053 190.707 30.4386 193.229 34.305 194.429C39.138 195.929 55.1368 194.929 56.3034 194.929C57.47 194.929 58.9699 194.429 57.47 191.763C56.2701 189.629 47.9707 189.763 43.971 190.096C49.5261 186.874 60.8698 175.896 61.803 157.763C62.9696 135.096 54.6369 127.429 46.1375 120.429C37.6381 113.429 27.1389 119.096 24.1391 120.429C21.1393 121.763 26.3056 129.596 27.1389 138.263C27.9722 146.929 21.3058 150.596 16.6395 159.596Z" fill="url(#paint13_linear_619_7063)"/>
<path d="M28.0674 108.385C21.0679 113.385 22.8774 121.719 24.4011 127.052C26.7342 135.219 34.9004 135.552 42.8998 131.219C50.8992 126.885 58.3987 122.885 57.3988 117.052C56.3988 111.219 53.5657 112.385 49.066 108.385C44.5664 104.385 35.0668 103.385 28.0674 108.385Z" fill="url(#paint14_linear_619_7063)"/>
<path d="M63.0903 140.401C64.3446 147.235 65.1098 148.719 65.2048 153.446C65.3383 157.575 63.996 184.5 73.3545 183.735C82.4621 182.99 74.5437 160.545 71.8855 152.347C69.2274 144.15 69.5577 145.283 68.3202 138.292C67.0826 131.302 66.0856 125.704 63.2788 126.776C60.0879 127.995 61.5223 131.86 63.0903 140.401Z" fill="url(#paint15_linear_619_7063)"/>
<path d="M34.1572 144.306C28.8076 137.781 37.1761 133.658 41.7221 134.738C52.3816 137.272 50.0698 143.719 57.6192 146.373C64.7481 148.878 72.2549 144.711 75.3028 150.667C75.8219 151.681 74.7787 156.163 69.522 153.227C54.5787 154.559 39.1156 150.354 34.1572 144.306Z" fill="url(#paint16_linear_619_7063)"/>
<mask id="path-18-outside-1_619_7063" maskUnits="userSpaceOnUse" x="38.7123" y="113.628" width="6.96805" height="5.71849" fill="black">
<rect fill="white" x="38.7123" y="113.628" width="6.96805" height="5.71849"/>
<path fill-rule="evenodd" clip-rule="evenodd" d="M40.4189 116.653C41.6775 115.087 42.5955 115.45 43.2011 115.828C43.3876 115.945 43.5794 115.98 43.7737 115.984L44.1328 115.97C44.063 116.02 43.9875 116.101 43.903 116.202C43.8594 116.253 43.8134 116.31 43.7646 116.371C43.462 116.745 43.0511 117.254 42.4281 117.51C41.9657 117.7 41.5336 117.377 41.1231 117.07C41.101 117.054 41.079 117.037 41.057 117.021C41.0791 117.016 41.1011 117.008 41.1227 116.999C41.3196 116.911 41.4085 116.677 41.3212 116.477C41.234 116.276 41.0037 116.184 40.8068 116.272C40.6352 116.348 40.5456 116.535 40.5831 116.715C40.528 116.689 40.4733 116.668 40.4189 116.653Z"/>
</mask>
<path fill-rule="evenodd" clip-rule="evenodd" d="M40.4189 116.653C41.6775 115.087 42.5955 115.45 43.2011 115.828C43.3876 115.945 43.5794 115.98 43.7737 115.984L44.1328 115.97C44.063 116.02 43.9875 116.101 43.903 116.202C43.8594 116.253 43.8134 116.31 43.7646 116.371C43.462 116.745 43.0511 117.254 42.4281 117.51C41.9657 117.7 41.5336 117.377 41.1231 117.07C41.101 117.054 41.079 117.037 41.057 117.021C41.0791 117.016 41.1011 117.008 41.1227 116.999C41.3196 116.911 41.4085 116.677 41.3212 116.477C41.234 116.276 41.0037 116.184 40.8068 116.272C40.6352 116.348 40.5456 116.535 40.5831 116.715C40.528 116.689 40.4733 116.668 40.4189 116.653Z" fill="#CE575E"/>
<path d="M44.1204 115.971L44.1032 115.721L44.1032 115.721L44.1204 115.971ZM44.1499 116.219C44.1458 116.22 44.1417 116.22 44.1375 116.22L44.1032 115.721C44.1073 115.721 44.1115 115.721 44.1156 115.72L44.1499 116.219ZM44.1375 116.22C44.0236 116.228 43.8963 116.237 43.7679 116.234L43.7795 115.734C43.881 115.736 43.9852 115.729 44.1032 115.721L44.1375 116.22ZM43.2011 115.828L43.4662 115.404L43.2011 115.828ZM40.4189 116.653L40.2888 117.136C40.1257 117.092 39.9959 116.969 39.9435 116.808C39.8912 116.648 39.9234 116.472 40.0291 116.34L40.4189 116.653ZM43.7737 115.984L43.7934 116.484C43.7829 116.484 43.7725 116.484 43.7621 116.484L43.7737 115.984ZM44.1328 115.97L44.1131 115.47C44.3336 115.462 44.5337 115.598 44.6055 115.807C44.6774 116.016 44.604 116.247 44.4249 116.376L44.1328 115.97ZM43.903 116.202L44.2855 116.524L44.2855 116.524L43.903 116.202ZM43.7646 116.371L43.3757 116.056L43.3757 116.056L43.7646 116.371ZM42.4281 117.51L42.2381 117.047L42.2381 117.047L42.4281 117.51ZM41.1231 117.07L40.8238 117.471L40.8238 117.471L41.1231 117.07ZM41.057 117.021L40.7587 117.422C40.6032 117.307 40.5284 117.112 40.567 116.922C40.6056 116.732 40.7505 116.581 40.9388 116.535L41.057 117.021ZM41.1227 116.999L41.3259 117.455L41.3259 117.455L41.1227 116.999ZM41.3212 116.477L41.7798 116.277L41.7798 116.277L41.3212 116.477ZM40.8068 116.272L40.6036 115.815L40.6036 115.815L40.8068 116.272ZM40.5831 116.715L41.0726 116.613C41.1114 116.799 41.0416 116.99 40.8926 117.108C40.7435 117.225 40.5408 117.248 40.3692 117.167L40.5831 116.715ZM42.9361 116.252C42.6621 116.081 42.4049 115.972 42.1169 116.008C41.832 116.043 41.3937 116.238 40.8086 116.966L40.0291 116.34C40.7026 115.502 41.3527 115.095 41.9929 115.015C42.6299 114.936 43.1345 115.197 43.4662 115.404L42.9361 116.252ZM43.7621 116.484C43.5128 116.478 43.2235 116.432 42.9361 116.252L43.4662 115.404C43.5516 115.458 43.6461 115.481 43.7853 115.484L43.7621 116.484ZM44.1525 116.469L43.7934 116.484L43.754 115.484L44.1131 115.47L44.1525 116.469ZM43.5205 115.88C43.6055 115.779 43.7156 115.654 43.8407 115.564L44.4249 116.376C44.4104 116.386 44.3695 116.424 44.2855 116.524L43.5205 115.88ZM43.3757 116.056C43.4238 115.997 43.4731 115.936 43.5205 115.88L44.2855 116.524C44.2458 116.571 44.2031 116.624 44.1535 116.685L43.3757 116.056ZM42.2381 117.047C42.7267 116.846 43.0649 116.441 43.3757 116.056L44.1535 116.685C43.8592 117.049 43.3756 117.661 42.6181 117.972L42.2381 117.047ZM41.4223 116.67C41.6387 116.831 41.8023 116.95 41.957 117.018C42.0944 117.079 42.1712 117.075 42.2381 117.047L42.6181 117.972C42.2226 118.135 41.8522 118.064 41.5552 117.934C41.2757 117.811 41.0179 117.616 40.8238 117.471L41.4223 116.67ZM41.3553 116.62C41.3778 116.636 41.4003 116.653 41.4223 116.67L40.8238 117.471C40.8017 117.454 40.7801 117.438 40.7587 117.422L41.3553 116.62ZM40.9388 116.535C40.9319 116.537 40.9254 116.539 40.9195 116.542L41.3259 117.455C41.2768 117.477 41.2264 117.494 41.1752 117.507L40.9388 116.535ZM40.9195 116.542C40.8591 116.569 40.8433 116.631 40.8627 116.676L41.7798 116.277C41.9736 116.723 41.78 117.253 41.3259 117.455L40.9195 116.542ZM40.8627 116.676C40.8833 116.723 40.9464 116.757 41.0099 116.729L40.6036 115.815C41.0609 115.612 41.5847 115.829 41.7798 116.277L40.8627 116.676ZM41.0099 116.729C41.063 116.705 41.081 116.653 41.0726 116.613L40.0937 116.817C40.0102 116.417 40.2073 115.991 40.6036 115.815L41.0099 116.729ZM40.549 116.171C40.6379 116.194 40.7209 116.227 40.797 116.263L40.3692 117.167C40.3351 117.151 40.3087 117.141 40.2888 117.136L40.549 116.171Z" fill="#CE575E" mask="url(#path-18-outside-1_619_7063)"/>
<mask id="path-20-outside-2_619_7063" maskUnits="userSpaceOnUse" x="45.5253" y="108.335" width="3.8842" height="4.61053" fill="black">
<rect fill="white" x="45.5253" y="108.335" width="3.8842" height="4.61053"/>
<path fill-rule="evenodd" clip-rule="evenodd" d="M47.421 109.667C46.7878 110.3 47.0409 110.778 47.2885 111.106C47.373 111.217 47.4058 111.332 47.4193 111.448L47.43 111.661C47.4582 111.62 47.5058 111.576 47.5652 111.526C47.5958 111.501 47.6296 111.474 47.6655 111.445C47.8877 111.267 48.1895 111.026 48.3186 110.656C48.4144 110.382 48.1848 110.123 47.9667 109.876C47.9512 109.859 47.9358 109.841 47.9206 109.824C47.9186 109.833 47.916 109.842 47.9126 109.851C47.8695 109.967 47.7244 110.02 47.5885 109.97C47.4526 109.919 47.3774 109.784 47.4205 109.669C47.4207 109.668 47.4208 109.668 47.421 109.667ZM47.552 109.545C47.5975 109.53 47.6497 109.526 47.7022 109.538C47.6863 109.51 47.6727 109.482 47.6622 109.454C47.6234 109.485 47.5867 109.515 47.552 109.545Z"/>
</mask>
<path fill-rule="evenodd" clip-rule="evenodd" d="M47.421 109.667C46.7878 110.3 47.0409 110.778 47.2885 111.106C47.373 111.217 47.4058 111.332 47.4193 111.448L47.43 111.661C47.4582 111.62 47.5058 111.576 47.5652 111.526C47.5958 111.501 47.6296 111.474 47.6655 111.445C47.8877 111.267 48.1895 111.026 48.3186 110.656C48.4144 110.382 48.1848 110.123 47.9667 109.876C47.9512 109.859 47.9358 109.841 47.9206 109.824C47.9186 109.833 47.916 109.842 47.9126 109.851C47.8695 109.967 47.7244 110.02 47.5885 109.97C47.4526 109.919 47.3774 109.784 47.4205 109.669C47.4207 109.668 47.4208 109.668 47.421 109.667ZM47.552 109.545C47.5975 109.53 47.6497 109.526 47.7022 109.538C47.6863 109.51 47.6727 109.482 47.6622 109.454C47.6234 109.485 47.5867 109.515 47.552 109.545Z" fill="#CE575E"/>
<path d="M47.4299 111.654L47.6798 111.65L47.6798 111.65L47.4299 111.654ZM47.68 111.657C47.6799 111.654 47.6799 111.652 47.6798 111.65L47.1799 111.659C47.18 111.661 47.18 111.664 47.18 111.666L47.68 111.657ZM47.6798 111.65C47.6786 111.583 47.6773 111.501 47.6676 111.419L47.171 111.477C47.1774 111.531 47.1786 111.588 47.1799 111.659L47.6798 111.65ZM47.2885 111.106L46.8897 111.407L46.8897 111.407L47.2885 111.106ZM47.421 109.667L47.8885 109.845C47.972 109.624 47.8904 109.376 47.6926 109.248C47.4947 109.12 47.2344 109.147 47.0676 109.314L47.421 109.667ZM47.4193 111.448L47.9187 111.423C47.9182 111.412 47.9172 111.401 47.9159 111.39L47.4193 111.448ZM47.43 111.661L46.9306 111.686C46.9413 111.901 47.0876 112.084 47.2942 112.143C47.5007 112.201 47.7214 112.121 47.8426 111.944L47.43 111.661ZM47.5652 111.526L47.8859 111.91L47.8859 111.91L47.5652 111.526ZM47.6655 111.445L47.9778 111.835L47.9778 111.835L47.6655 111.445ZM48.3186 110.656L47.8466 110.491L47.8466 110.491L48.3186 110.656ZM47.9667 109.876L48.3412 109.545L48.3412 109.545L47.9667 109.876ZM47.9206 109.824L48.2964 109.494C48.1715 109.352 47.9769 109.292 47.7938 109.34C47.6106 109.388 47.4703 109.536 47.4313 109.721L47.9206 109.824ZM47.9126 109.851L47.444 109.677L47.444 109.677L47.9126 109.851ZM47.5885 109.97L47.7628 109.501L47.7628 109.501L47.5885 109.97ZM47.4205 109.669L47.8891 109.843L47.8891 109.843L47.4205 109.669ZM47.552 109.545L47.2237 109.168C47.0432 109.325 46.9994 109.589 47.1191 109.796C47.2389 110.003 47.4887 110.096 47.715 110.018L47.552 109.545ZM47.7022 109.538L47.5966 110.027C47.7893 110.068 47.9885 109.993 48.1052 109.834C48.2219 109.675 48.2344 109.462 48.137 109.291L47.7022 109.538ZM47.6622 109.454L48.1296 109.277C48.073 109.127 47.9486 109.014 47.7947 108.972C47.6408 108.93 47.476 108.963 47.351 109.063L47.6622 109.454ZM47.6873 110.804C47.5768 110.658 47.5289 110.556 47.5235 110.469C47.5198 110.411 47.5292 110.266 47.7743 110.021L47.0676 109.314C46.6795 109.701 46.499 110.112 46.5254 110.532C46.5502 110.925 46.7526 111.226 46.8897 111.407L47.6873 110.804ZM47.9159 111.39C47.8953 111.213 47.8402 111.006 47.6873 110.804L46.8897 111.407C46.9001 111.421 46.9058 111.432 46.9099 111.444C46.9144 111.456 46.9191 111.475 46.9227 111.506L47.9159 111.39ZM47.9294 111.637L47.9187 111.423L46.92 111.473L46.9306 111.686L47.9294 111.637ZM47.2444 111.143C47.1852 111.192 47.0885 111.275 47.0174 111.379L47.8426 111.944C47.8366 111.953 47.8323 111.958 47.8316 111.958C47.8308 111.959 47.8321 111.958 47.8365 111.954C47.8457 111.944 47.861 111.931 47.8859 111.91L47.2444 111.143ZM47.3532 111.054C47.3184 111.082 47.2801 111.113 47.2444 111.143L47.8859 111.91C47.9116 111.888 47.9409 111.865 47.9778 111.835L47.3532 111.054ZM47.8466 110.491C47.7716 110.706 47.5893 110.866 47.3532 111.054L47.9778 111.835C48.1861 111.669 48.6073 111.346 48.7906 110.821L47.8466 110.491ZM47.5922 110.207C47.6482 110.271 47.6952 110.324 47.737 110.376C47.7785 110.428 47.8062 110.468 47.824 110.5C47.8592 110.563 47.8291 110.542 47.8466 110.491L48.7906 110.821C48.9039 110.497 48.8069 110.209 48.6968 110.012C48.5927 109.826 48.441 109.658 48.3412 109.545L47.5922 110.207ZM47.5448 110.154C47.5608 110.172 47.5769 110.19 47.5922 110.207L48.3412 109.545C48.3256 109.527 48.3108 109.511 48.2964 109.494L47.5448 110.154ZM47.4313 109.721C47.4344 109.706 47.4387 109.691 47.444 109.677L48.3812 110.026C48.3933 109.993 48.4028 109.96 48.4098 109.927L47.4313 109.721ZM47.444 109.677C47.4805 109.579 47.555 109.525 47.6139 109.503C47.6715 109.482 47.7239 109.487 47.7628 109.501L47.4142 110.438C47.7361 110.558 48.2167 110.468 48.3812 110.026L47.444 109.677ZM47.7628 109.501C47.8016 109.516 47.8442 109.547 47.8741 109.6C47.9047 109.655 47.9256 109.745 47.8891 109.843L46.952 109.494C46.7874 109.936 47.0923 110.319 47.4142 110.438L47.7628 109.501ZM47.8891 109.843C47.8889 109.844 47.8887 109.844 47.8885 109.845L46.9535 109.49C46.953 109.491 46.9525 109.493 46.9519 109.494L47.8891 109.843ZM47.715 110.018C47.6707 110.033 47.6298 110.034 47.5966 110.027L47.8079 109.049C47.6697 109.019 47.5244 109.026 47.389 109.073L47.715 110.018ZM47.1947 109.631C47.216 109.688 47.2414 109.739 47.2675 109.785L48.137 109.291C48.1311 109.28 48.1294 109.276 48.1296 109.277L47.1947 109.631ZM47.8803 109.923C47.9091 109.898 47.94 109.872 47.9733 109.845L47.351 109.063C47.3067 109.098 47.2643 109.133 47.2237 109.168L47.8803 109.923Z" fill="#CE575E" mask="url(#path-20-outside-2_619_7063)"/>
<path fill-rule="evenodd" clip-rule="evenodd" d="M50.5342 115.273C50.4354 115.391 50.3758 115.534 50.3687 115.67C50.3616 115.806 50.4075 115.925 50.4963 115.999C50.5851 116.073 50.7095 116.097 50.8421 116.066L52.1566 116.008L53.2293 116.817C53.2375 116.823 53.247 116.827 53.2571 116.829C53.3297 116.845 53.3747 116.753 53.3177 116.705L52.3135 115.868L52.1638 114.597C52.1686 114.529 52.16 114.464 52.1387 114.406C52.1174 114.349 52.0837 114.3 52.0397 114.262C51.9957 114.225 51.9422 114.199 51.8823 114.187C51.8224 114.175 51.7573 114.177 51.6909 114.193C51.6245 114.208 51.558 114.237 51.4953 114.278C51.4327 114.319 51.3751 114.371 51.326 114.43C51.2769 114.49 51.2372 114.556 51.2093 114.625C51.2041 114.638 51.1985 114.651 51.193 114.663C51.1689 114.717 51.1463 114.767 51.1633 114.833C51.1718 114.865 51.2186 114.919 51.2664 114.973C51.3495 115.068 51.436 115.166 51.3302 115.166C51.2502 115.166 51.1775 115.13 51.1088 115.095C51.0344 115.058 50.9648 115.023 50.8958 115.039C50.7631 115.07 50.6331 115.154 50.5342 115.273Z" fill="#CE575E"/>
</g>
<defs>
<filter id="filter0_f_619_7063" x="15" y="0" width="243" height="243" filterUnits="userSpaceOnUse" color-interpolation-filters="sRGB">
<feFlood flood-opacity="0" result="BackgroundImageFix"/>
<feBlend mode="normal" in="SourceGraphic" in2="BackgroundImageFix" result="shape"/>
<feGaussianBlur stdDeviation="7.5" result="effect1_foregroundBlur_619_7063"/>
</filter>
<filter id="filter1_f_619_7063" x="31.063" y="43" width="190.937" height="187.093" filterUnits="userSpaceOnUse" color-interpolation-filters="sRGB">
<feFlood flood-opacity="0" result="BackgroundImageFix"/>
<feBlend mode="normal" in="SourceGraphic" in2="BackgroundImageFix" result="shape"/>
<feGaussianBlur stdDeviation="2" result="effect1_foregroundBlur_619_7063"/>
</filter>
<filter id="filter2_f_619_7063" x="141.568" y="89.5684" width="32.0029" height="32.0029" filterUnits="userSpaceOnUse" color-interpolation-filters="sRGB">
<feFlood flood-opacity="0" result="BackgroundImageFix"/>
<feBlend mode="normal" in="SourceGraphic" in2="BackgroundImageFix" result="shape"/>
<feGaussianBlur stdDeviation="2" result="effect1_foregroundBlur_619_7063"/>
</filter>
<filter id="filter3_f_619_7063" x="149.433" y="117.881" width="62.0068" height="62.0063" filterUnits="userSpaceOnUse" color-interpolation-filters="sRGB">
<feFlood flood-opacity="0" result="BackgroundImageFix"/>
<feBlend mode="normal" in="SourceGraphic" in2="BackgroundImageFix" result="shape"/>
<feGaussianBlur stdDeviation="2" result="effect1_foregroundBlur_619_7063"/>
</filter>
<filter id="filter4_f_619_7063" x="98.2334" y="123.233" width="46.0044" height="46.0049" filterUnits="userSpaceOnUse" color-interpolation-filters="sRGB">
<feFlood flood-opacity="0" result="BackgroundImageFix"/>
<feBlend mode="normal" in="SourceGraphic" in2="BackgroundImageFix" result="shape"/>
<feGaussianBlur stdDeviation="2" result="effect1_foregroundBlur_619_7063"/>
</filter>
<filter id="filter5_dd_619_7063" x="0" y="79" width="97" height="128" filterUnits="userSpaceOnUse" color-interpolation-filters="sRGB">
<feFlood flood-opacity="0" result="BackgroundImageFix"/>
<feColorMatrix in="SourceAlpha" type="matrix" values="0 0 0 0 0 0 0 0 0 0 0 0 0 0 0 0 0 0 127 0" result="hardAlpha"/>
<feOffset dy="4"/>
<feGaussianBlur stdDeviation="3"/>
<feComposite in2="hardAlpha" operator="out"/>
<feColorMatrix type="matrix" values="0 0 0 0 0 0 0 0 0 0 0 0 0 0 0 0 0 0 0.1 0"/>
<feBlend mode="normal" in2="BackgroundImageFix" result="effect1_dropShadow_619_7063"/>
<feColorMatrix in="SourceAlpha" type="matrix" values="0 0 0 0 0 0 0 0 0 0 0 0 0 0 0 0 0 0 127 0" result="hardAlpha"/>
<feOffset dy="2"/>
<feGaussianBlur stdDeviation="2"/>
<feComposite in2="hardAlpha" operator="out"/>
<feColorMatrix type="matrix" values="0 0 0 0 0 0 0 0 0 0 0 0 0 0 0 0 0 0 0.05 0"/>
<feBlend mode="normal" in2="effect1_dropShadow_619_7063" result="effect2_dropShadow_619_7063"/>
<feBlend mode="normal" in="SourceGraphic" in2="effect2_dropShadow_619_7063" result="shape"/>
</filter>
<linearGradient id="paint0_linear_619_7063" x1="75.6429" y1="33.8867" x2="202.603" y2="218.557" gradientUnits="userSpaceOnUse">
<stop stop-color="#F2D791"/>
<stop offset="1" stop-color="#E7B22C"/>
</linearGradient>
<linearGradient id="paint1_linear_619_7063" x1="189" y1="36.5" x2="60.5" y2="226" gradientUnits="userSpaceOnUse">
<stop stop-color="#F2D791"/>
<stop offset="1" stop-color="#E7B22C"/>
</linearGradient>
<linearGradient id="paint2_linear_619_7063" x1="97.063" y1="137" x2="44.063" y2="187.593" gradientUnits="userSpaceOnUse">
<stop stop-color="#E0B139"/>
<stop offset="1" stop-color="#DFA91F"/>
</linearGradient>
<linearGradient id="paint3_linear_619_7063" x1="150.158" y1="96.0403" x2="163.973" y2="116.682" gradientUnits="userSpaceOnUse">
<stop stop-color="#ECC55F"/>
<stop offset="1" stop-color="#E3B53F"/>
</linearGradient>
<linearGradient id="paint4_linear_619_7063" x1="163.76" y1="127.443" x2="194.842" y2="173.887" gradientUnits="userSpaceOnUse">
<stop stop-color="#ECC55F"/>
<stop offset="1" stop-color="#E3B53F"/>
</linearGradient>
<linearGradient id="paint5_linear_619_7063" x1="109.5" y1="131.147" x2="131.373" y2="163.83" gradientUnits="userSpaceOnUse">
<stop stop-color="#ECC55F"/>
<stop offset="1" stop-color="#E3B53F"/>
</linearGradient>
<linearGradient id="paint6_linear_619_7063" x1="61.5" y1="182" x2="35.4999" y2="184.999" gradientUnits="userSpaceOnUse">
<stop stop-color="#F2F1EF"/>
<stop offset="1" stop-color="#F8C4C7"/>
</linearGradient>
<linearGradient id="paint7_linear_619_7063" x1="82.877" y1="193.546" x2="57.4041" y2="177.211" gradientUnits="userSpaceOnUse">
<stop stop-color="#9A5740"/>
<stop offset="1" stop-color="#E49969"/>
</linearGradient>
<linearGradient id="paint8_linear_619_7063" x1="76.3918" y1="190.046" x2="63.4373" y2="176.511" gradientUnits="userSpaceOnUse">
<stop stop-color="#622F26"/>
<stop offset="1" stop-color="#8B4C3A"/>
</linearGradient>
<linearGradient id="paint9_linear_619_7063" x1="16" y1="162" x2="2.4994" y2="170.999" gradientUnits="userSpaceOnUse">
<stop stop-color="white"/>
<stop offset="1" stop-color="#F8C4C7"/>
</linearGradient>
<linearGradient id="paint10_linear_619_7063" x1="70.9954" y1="127.5" x2="43.9963" y2="143.665" gradientUnits="userSpaceOnUse">
<stop stop-color="white"/>
<stop offset="1" stop-color="#F8C4C7"/>
</linearGradient>
<linearGradient id="paint11_linear_619_7063" x1="12" y1="82" x2="17.997" y2="129" gradientUnits="userSpaceOnUse">
<stop stop-color="white"/>
<stop offset="1" stop-color="#F8C4C7"/>
</linearGradient>
<linearGradient id="paint12_linear_619_7063" x1="37" y1="77.5" x2="28.9974" y2="132.5" gradientUnits="userSpaceOnUse">
<stop stop-color="white"/>
<stop offset="1" stop-color="#F8C4C7"/>
</linearGradient>
<linearGradient id="paint13_linear_619_7063" x1="48.5" y1="156" x2="-8.49976" y2="177.501" gradientUnits="userSpaceOnUse">
<stop stop-color="white"/>
<stop offset="1" stop-color="#F8C4C7"/>
</linearGradient>
<linearGradient id="paint14_linear_619_7063" x1="40" y1="116" x2="-49.4999" y2="112.497" gradientUnits="userSpaceOnUse">
<stop stop-color="white"/>
<stop offset="1" stop-color="#F8C4C7"/>
</linearGradient>
<linearGradient id="paint15_linear_619_7063" x1="51.5712" y1="121.089" x2="82.9813" y2="178.996" gradientUnits="userSpaceOnUse">
<stop offset="0.244792" stop-color="#D48A60"/>
<stop offset="1" stop-color="#A25F45"/>
</linearGradient>
<linearGradient id="paint16_linear_619_7063" x1="65" y1="148.5" x2="45.8169" y2="179.888" gradientUnits="userSpaceOnUse">
<stop offset="0.0639466" stop-color="white"/>
<stop offset="1" stop-color="#F8C4C7"/>
</linearGradient>
</defs>
</svg>
