<svg width="390" height="123" viewBox="0 0 390 123" fill="none" xmlns="http://www.w3.org/2000/svg">
<path d="M390 51.9999V123.001H0V43.5394C6 47.9999 19 56.4999 31.5441 57.972C62.8951 61.6511 66.4107 43.5394 103 43.5394C132 43.5394 150.994 73.8999 193 66.9999C235.006 60.0999 274.72 -11.7332 319 2.49977C347 11.4999 368 41.4999 390 51.9999Z" fill="url(#paint0_linear_619_7061)"/>
<path d="M390 123H0V70C8.72629 67.4849 28.5061 102.029 60.0841 102.029C81.2745 101.526 97.4401 91.5625 121.124 89.0474C156.857 85.2525 175.188 104.891 212.997 98.8547C231.42 95.9135 268.69 61.0719 291.126 63.0838C311.486 64.9097 327.634 92.0434 350.148 92.0434C367.184 92.0434 381.136 78.7672 390 73.5692V123Z" fill="url(#paint1_linear_619_7061)"/>
<defs>
<linearGradient id="paint0_linear_619_7061" x1="182.5" y1="1" x2="195" y2="90.5" gradientUnits="userSpaceOnUse">
<stop stop-color="#67BEBE"/>
<stop offset="1" stop-color="#1A5B5B"/>
</linearGradient>
<linearGradient id="paint1_linear_619_7061" x1="195" y1="87" x2="193.054" y2="123.403" gradientUnits="userSpaceOnUse">
<stop stop-color="#388E8E"/>
<stop offset="1" stop-color="#1A5B5B"/>
</linearGradient>
</defs>
</svg>
